Patient4_TMGait_0pt6_01_left_40_GRF.mot
version=1
nRows=58
nColumns=19
inDegrees=no
endheader
time	F1x	F1y	F1z	M1x	M1y	M1z	F2x	F2y	F2z	M2x	M2y	M2z	EC1x	EC1y	EC1z	EC2x	EC2y	EC2z
48.7	4.7022	-6.1152	-0.8347	2.1903	2.7516	-2.6326	-29.8599	735.5784	-46.1656	304.1099	58.038	747.6418	-0.0592	0.0182	-0.0073	-0.0462	0.0165	0.9585
48.7119	3.0007	-3.2174	-0.65611	1.1651	1.9612	-0.77815	-25.7332	731.5352	-44.5318	304.5254	54.8417	740.6372	-0.0592	0.0182	-0.0073	-0.0462	0.0165	0.9585
48.7237	1.5864	-0.73307	-0.43976	0.2768	1.2213	0.84533	-21.5574	731.0357	-43.0269	306.1594	51.6309	736.2245	-0.0592	0.0182	-0.0073	-0.0462	0.0165	0.9585
48.7356	0.52715	1.2009	-0.244	-0.41877	0.62375	2.1346	-17.6264	734.5261	-41.7299	309.0736	48.6042	735.0311	-0.0592	0.0182	-0.0073	-0.0462	0.0165	0.9585
48.7474	-0.1931	2.5723	-0.076268	-0.91467	0.17317	3.0632	-14.1915	741.6194	-40.7007	313.0639	45.9334	736.9472	-0.0592	0.0182	-0.0073	-0.0462	0.0165	0.9585
48.7593	-0.63651	3.4517	0.046036	-1.2357	-0.13684	3.6681	-11.3453	751.2917	-39.9617	317.7037	43.6981	741.203	-0.0592	0.0182	-0.0073	-0.0462	0.0165	0.9585
48.7711	-0.87944	3.9278	0.14127	-1.414	-0.35463	3.995	-9.0412	762.0587	-39.5381	322.3992	41.9112	746.5464	-0.0592	0.0182	-0.0073	-0.0462	0.0165	0.9585
48.783	-1.0105	4.0764	0.20826	-1.4773	-0.50926	4.071	-7.0699	772.2874	-39.4199	326.5134	40.4856	751.5206	-0.0592	0.0182	-0.0073	-0.0462	0.0165	0.9585
48.7949	-1.0942	3.9429	0.26645	-1.4387	-0.63981	3.898	-5.2128	780.5613	-39.5631	329.5015	39.2966	754.8391	-0.0592	0.0182	-0.0073	-0.0462	0.0165	0.9585
48.8067	-1.1748	3.5265	0.32513	-1.2944	-0.76958	3.4398	-3.287	785.8042	-39.9085	330.9718	38.2218	755.4902	-0.0592	0.0182	-0.0073	-0.0462	0.0165	0.9585
48.8186	-1.2749	2.7907	0.38944	-1.0267	-0.91075	2.6357	-1.2026	787.4796	-40.3967	330.7563	37.1811	752.976	-0.0592	0.0182	-0.0073	-0.0462	0.0165	0.9585
48.8304	-1.3855	1.6773	0.46537	-0.61033	-1.0622	1.4105	1.0445	785.5794	-40.9885	328.9159	36.1511	747.2623	-0.0592	0.0182	-0.0073	-0.0462	0.0165	0.9585
48.8423	-1.4735	0.14005	0.54207	-0.026657	-1.197	-0.29245	3.3614	780.6244	-41.6724	325.7284	35.1667	738.8092	-0.0592	0.0182	-0.0073	-0.0462	0.0165	0.9585
48.8541	-1.4807	-1.8254	0.61299	0.72287	-1.2877	-2.4857	5.6811	773.4968	-42.459	321.6166	34.2769	728.4078	-0.0592	0.0182	-0.0073	-0.0462	0.0165	0.9585
48.866	-1.3234	-4.1105	0.6482	1.5914	-1.2703	-5.0409	7.9434	765.2193	-43.3898	317.0531	33.5464	716.9831	-0.0592	0.0182	-0.0073	-0.0462	0.0165	0.9585
48.8779	-0.87981	-6.4247	0.6127	2.4673	-1.0566	-7.6331	10.1712	756.7508	-44.4963	312.4729	33.0044	705.3754	-0.0592	0.0182	-0.0073	-0.0462	0.0165	0.9585
48.8897	-0.0045965	-8.2142	0.43262	3.1399	-0.50979	-9.6437	12.4385	748.8099	-45.8065	308.1958	32.6582	694.2127	-0.0592	0.0182	-0.0073	-0.0462	0.0165	0.9585
48.9016	1.4668	-8.6001	0.031073	3.2725	0.51839	-10.0878	14.8639	741.7281	-47.2986	304.3725	32.4509	683.7696	-0.0592	0.0182	-0.0073	-0.0462	0.0165	0.9585
48.9134	3.6644	-6.3076	-0.69078	2.3774	2.1856	-7.5173	17.5825	735.4888	-48.9206	300.9977	32.2854	674.0237	-0.0592	0.0182	-0.0073	-0.0462	0.0165	0.9585
48.9253	6.6491	0.32991	-1.8136	-0.18225	4.6035	-0.049554	20.7312	729.7756	-50.5676	297.9417	32.0171	664.6938	-0.0592	0.0182	-0.0073	-0.0462	0.0165	0.9585
48.9371	10.3091	13.3106	-3.3983	-5.1648	7.7919	14.5768	24.3882	724.0926	-52.0907	295.0011	31.4881	655.3615	-0.0592	0.0182	-0.0073	-0.0462	0.0165	0.9585
48.949	14.2716	34.6621	-5.4214	-13.3404	11.5722	38.6452	28.5417	717.8341	-53.3022	291.9306	30.5475	645.5309	-0.0592	0.0182	-0.0073	-0.0462	0.0165	0.9585
48.9609	17.742	66.0051	-7.7388	-25.3166	15.4668	73.9893	33.065	710.2766	-53.9661	288.4419	29.0496	634.6374	-0.0592	0.0182	-0.0073	-0.0462	0.0165	0.9585
48.9727	19.4389	107.7432	-9.9876	-41.2345	18.5722	121.0756	37.7427	700.4973	-53.8498	284.1685	26.8903	621.9684	-0.0592	0.0182	-0.0073	-0.0462	0.0165	0.9585
48.9846	17.7888	158.3206	-11.595	-60.4776	19.6596	178.183	42.3034	687.2995	-52.7408	278.6275	24.008	606.579	-0.0592	0.0182	-0.0073	-0.0462	0.0165	0.9585
48.9964	12.0096	213.8217	-11.8166	-81.5125	17.6074	240.9152	46.451	669.2502	-50.5304	271.235	20.4423	587.317	-0.0592	0.0182	-0.0073	-0.0462	0.0165	0.9585
49.0083	3.4322	268.3989	-9.7039	-102.0614	11.8909	302.6141	49.8987	644.97	-47.2118	261.419	16.3148	563.0734	-0.0592	0.0182	-0.0073	-0.0462	0.0165	0.9585
49.0201	-5.5854	316.8106	-4.8532	-120.1195	3.021	357.0669	52.3712	613.4153	-42.9507	248.7346	11.8822	533.0056	-0.0592	0.0182	-0.0073	-0.0462	0.0165	0.9585
49.032	-13.5884	357.2171	1.7767	-135.0162	-7.3627	401.9432	53.6143	574.1884	-38.0268	232.9855	7.4743	496.8256	-0.0592	0.0182	-0.0073	-0.0462	0.0165	0.9585
49.0439	-19.807	390.7361	9.2306	-147.2214	-17.8798	438.3683	53.4925	527.6	-32.8135	214.2589	3.4499	454.8356	-0.0592	0.0182	-0.0073	-0.0462	0.0165	0.9585
49.0557	-24.1325	419.8595	16.4182	-157.7266	-27.2814	469.2171	51.9421	474.6283	-27.6413	192.918	0.087202	407.891	-0.0592	0.0182	-0.0073	-0.0462	0.0165	0.9585
49.0676	-26.7937	447.1826	22.7384	-167.5411	-34.9871	497.4885	49.0018	416.8239	-22.7125	169.5735	-2.4815	357.2945	-0.0592	0.0182	-0.0073	-0.0462	0.0165	0.9585
49.0794	-28.2762	474.9011	27.8857	-177.4951	-40.8503	525.7333	44.7587	356.2564	-18.1448	145.0538	-4.219	304.7918	-0.0592	0.0182	-0.0073	-0.0462	0.0165	0.9585
49.0913	-28.9694	504.6215	31.897	-188.172	-45.0921	555.7931	39.4366	295.3217	-13.9924	120.3367	-5.1883	252.3536	-0.0592	0.0182	-0.0073	-0.0462	0.0165	0.9585
49.1031	-29.2791	537.415	35.1239	-199.9265	-48.2687	588.9727	33.3692	236.6201	-10.324	96.4822	-5.4839	202.1281	-0.0592	0.0182	-0.0073	-0.0462	0.0165	0.9585
49.115	-29.4575	573.6691	37.9119	-212.8619	-50.8879	625.7541	27.0617	182.5633	-7.1947	74.4841	-5.2748	156.0484	-0.0592	0.0182	-0.0073	-0.0462	0.0165	0.9585
49.1269	-29.7155	612.9551	40.7091	-226.7805	-53.519	665.7572	20.998	135.0528	-4.671	55.1255	-4.7158	115.6478	-0.0592	0.0182	-0.0073	-0.0462	0.0165	0.9585
49.1387	-30.1887	653.964	43.7219	-241.1883	-56.4546	707.5574	15.5886	95.1779	-2.7552	38.8641	-3.9735	81.77	-0.0592	0.0182	-0.0073	-0.0462	0.0165	0.9585
49.1506	-31.0007	694.8871	47.1667	-255.4178	-59.9648	749.1962	10.9938	63.2206	-1.3999	25.8228	-3.1521	54.6355	-0.0592	0.0182	-0.0073	-0.0462	0.0165	0.9585
49.1624	-32.0808	733.8688	50.8528	-268.8204	-63.8428	788.6283	7.2613	38.8	-0.50789	15.8561	-2.3374	33.8888	-0.0592	0.0182	-0.0073	-0.0462	0.0165	0.9585
49.1743	-33.2585	769.2132	54.5187	-280.8276	-67.7544	824.0065	4.2937	21.1702	0.013153	8.6591	-1.5577	18.919	-0.0592	0.0182	-0.0073	-0.0462	0.0165	0.9585
49.1861	-34.32	799.3423	57.7747	-290.929	-71.2184	853.5993	2.0508	9.3443	0.26604	3.833	-0.86639	8.8781	-0.0592	0.0182	-0.0073	-0.0462	0.0165	0.9585
49.198	-35.0296	822.8803	60.4782	-298.6701	-73.9939	875.9395	0.45855	2.2491	0.34118	0.9339	-0.30137	2.8797	-0.0592	0.0182	-0.0073	-0.0462	0.0165	0.9585
49.2099	-35.2324	838.7906	62.5576	-303.7108	-75.9409	889.9293	-0.53409	-1.3133	0.31564	-0.52418	0.10759	-0.13195	-0.0592	0.0182	-0.0073	-0.0462	0.0165	0.9585
49.2217	-34.8507	846.5674	64.0103	-305.8927	-77.0205	895.0612	-1.095	-2.4597	0.24349	-0.99916	0.37776	-1.0912	-0.0592	0.0182	-0.0073	-0.0462	0.0165	0.9585
49.2336	-33.8686	846.4165	64.8015	-305.31	-77.1896	891.6086	-1.3172	-2.1683	0.15335	-0.8846	0.52799	-0.85507	-0.0592	0.0182	-0.0073	-0.0462	0.0165	0.9585
49.2454	-32.3057	839.2249	64.8784	-302.2971	-76.4063	880.5395	-1.3524	-1.14	0.067745	-0.46846	0.59437	0.0042651	-0.0592	0.0182	-0.0073	-0.0462	0.0165	0.9585
49.2573	-30.2193	826.3543	64.2993	-297.3505	-74.7504	863.3402	-1.2533	0.11771	-0.0096746	0.047794	0.6024	1.0354	-0.0592	0.0182	-0.0073	-0.0462	0.0165	0.9585
49.2691	-27.6427	809.4499	63.1453	-291.0638	-72.3236	841.7532	-1.1141	1.3339	-0.072896	0.55023	0.58006	2.0333	-0.0592	0.0182	-0.0073	-0.0462	0.0165	0.9585
49.281	-24.644	790.2455	61.5922	-284.0577	-69.3304	817.6034	-0.9535	2.3428	-0.12289	0.97295	0.54243	2.845	-0.0592	0.0182	-0.0073	-0.0462	0.0165	0.9585
49.2929	-21.2593	770.4217	59.7348	-276.9374	-65.8902	792.6191	-0.82176	3.1268	-0.1574	1.3013	0.50643	3.4784	-0.0592	0.0182	-0.0073	-0.0462	0.0165	0.9585
49.3047	-17.5494	751.4684	57.7244	-270.237	-62.1813	768.3391	-0.7118	3.6763	-0.18756	1.5348	0.48161	3.9143	-0.0592	0.0182	-0.0073	-0.0462	0.0165	0.9585
49.3166	-13.5859	734.5675	55.6473	-264.3816	-58.3199	745.9535	-0.6478	4.0512	-0.20884	1.6967	0.4702	4.2302	-0.0592	0.0182	-0.0073	-0.0462	0.0165	0.9585
49.3284	-9.4715	720.5472	53.643	-259.6583	-54.4816	726.3063	-0.60455	4.2928	-0.23562	1.8072	0.48003	4.4504	-0.0592	0.0182	-0.0073	-0.0462	0.0165	0.9585
49.3403	-5.3059	709.8469	51.8018	-256.2102	-50.7898	709.8405	-0.59277	4.4585	-0.25862	1.888	0.50481	4.6279	-0.0592	0.0182	-0.0073	-0.0462	0.0165	0.9585
49.3521	-1.22	702.5868	50.2197	-254.0588	-47.3768	696.6957	-0.59637	4.5786	-0.28476	1.9499	0.54696	4.7727	-0.0592	0.0182	-0.0073	-0.0462	0.0165	0.9585
49.364	2.7011	698.6341	48.9528	-253.1361	-44.3168	686.7587	-0.62766	4.6674	-0.30758	1.9953	0.60101	4.8983	-0.0592	0.0182	-0.0073	-0.0462	0.0165	0.9585
49.3759	6.4075	697.6869	48.0125	-253.3131	-41.6326	679.7577	-0.68918	4.7092	-0.33095	2.0167	0.66553	4.9865	-0.0592	0.0182	-0.0073	-0.0462	0.0165	0.9585
